<svg width="292" height="63" viewBox="0 0 292 63" fill="none" xmlns="http://www.w3.org/2000/svg">
<path d="M118.549 46.3169H86.1091V15.3314H117.386V19.9865H91.2491V27.8905H109.433V32.5456H91.2491V41.6618H118.549V46.3169Z" fill="#0D3E5C"/>
<path d="M166.652 46.3169H161.56V21.0048H161.415L145.365 46.1714L129.411 21.0048H129.266V46.3169H124.174V15.3314H130.575L145.413 38.025L160.251 15.3314H166.652V46.3169Z" fill="#0D3E5C"/>
<path d="M209.178 15.3314L192.546 46.3169H186.582L169.949 15.3314H175.623L189.54 41.1284L203.408 15.3314H209.178Z" fill="#0D3E5C"/>
<path d="M246.419 22.411L241.764 24.0597C238.612 20.7624 234.248 19.0167 228.623 19.0167C224.356 19.0167 220.864 20.132 218.149 22.3141C215.482 24.4961 214.076 27.2601 214.076 30.7029C214.076 34.2427 215.433 37.0552 218.1 39.1888C220.767 41.3223 224.356 42.3891 228.865 42.3891C234.296 42.3891 238.66 40.692 241.812 37.2976L246.176 39.7706C243.946 42.3891 241.424 44.2803 238.66 45.3956C235.848 46.5593 232.502 47.0927 228.623 47.0927C223.192 47.0927 218.585 45.6865 214.997 42.971C210.875 39.8191 208.79 35.6974 208.79 30.6544C208.79 25.7084 210.875 21.5867 215.094 18.4348C218.731 15.6708 223.289 14.2646 228.671 14.2646C236.381 14.3616 242.297 17.0286 246.419 22.411Z" fill="#0D3E5C"/>
<path d="M284.193 33.079C284.193 37.3946 282.399 40.8859 278.714 43.6014C275.562 45.8805 271.682 47.0927 266.979 47.0927C262.275 47.0927 258.348 45.9289 255.196 43.6014C251.51 40.9344 249.716 37.3946 249.716 33.079C249.716 28.8118 251.607 25.3205 255.293 22.6535C258.541 20.326 262.469 19.1137 267.027 19.1137C271.585 19.1137 275.465 20.2775 278.714 22.6535C282.302 25.369 284.193 28.8603 284.193 33.079ZM278.859 33.079C278.859 30.3635 277.744 28.1329 275.513 26.3388C273.283 24.5931 270.422 23.7203 266.93 23.7203C263.439 23.7203 260.53 24.6416 258.299 26.3873C256.068 28.1329 254.953 30.412 254.953 33.079C254.953 35.8429 256.068 38.1705 258.251 39.8676C260.433 41.5648 263.391 42.4861 267.027 42.4861C270.616 42.4861 273.477 41.6133 275.659 39.8676C277.695 38.122 278.859 35.8429 278.859 33.079Z" fill="#0D3E5C"/>
<path d="M55.0267 7.47596C53.5235 6.84559 51.3899 1.99654 53.5235 2.77239C69.6709 8.54277 77.1869 24.9811 73.1622 40.692C68.992 56.8393 50.3716 66.489 34.8062 60.1367C29.8601 58.1001 25.496 54.8997 22.1501 51.0205L23.0715 50.5841L25.1081 50.3901C27.2901 52.5237 30.0541 54.2693 33.303 55.4816C45.8135 59.9912 60.7486 55.2876 67.0524 43.2135C74.132 29.5877 69.5254 13.4403 55.0267 7.47596Z" fill="#0D3E5C"/>
<path d="M19.4347 41.2739C17.1071 34.4852 17.7375 26.5327 21.2288 19.7441C27.5811 7.62144 42.5162 2.96634 54.9782 7.47596C57.1603 8.3003 55.0267 3.30578 53.475 2.77238C37.7156 -2.90101 19.3862 5.43936 15.119 22.1686C13.4218 28.8118 14.0037 35.455 16.3313 41.4678" fill="#0D3E5C"/>
<path d="M39.9462 5.68181C49.0624 6.89407 54.9782 16.1073 57.6452 24.1082C61.6699 36.1339 57.5967 48.6444 49.2564 57.7606C47.4622 59.7488 50.7111 61.7369 52.3597 59.9427C61.8154 49.5657 65.5007 36.1824 61.476 22.605C58.6635 13.1493 51.002 3.35426 40.7705 2.04502C38.249 1.65709 37.2792 5.34237 39.9462 5.68181Z" fill="#0D3E5C"/>
<path d="M5.76037 39.8192C17.2526 43.3105 29.3268 42.6801 40.8675 39.6252C51.9234 36.6188 64.5794 30.7999 70.8347 20.8109C71.2226 20.229 68.7981 17.9499 68.3617 18.4833C60.0213 29.1027 50.6626 34.2912 40.0917 37.5886C28.5509 41.1769 16.2828 40.9344 4.40263 38.219C3.09339 37.928 5.17848 39.6252 5.76037 39.8192Z" fill="#9BC842"/>
<path d="M3.57825 51.069C27.9205 58.4395 61.1365 45.3956 71.3195 21.6352C71.756 20.5684 68.798 17.9984 68.5071 18.8227C58.5665 41.9527 25.496 55.8695 1.68712 48.6929C-0.349481 48.111 2.70542 50.875 3.57825 51.069Z" fill="#9BC842" stroke="#9BC842" stroke-width="1.3994" stroke-miterlimit="10"/>
<path d="M67.2949 18.2409C67.2949 18.2409 69.38 21.7807 70.1073 26.8722L72.7258 24.9326C72.7258 24.9326 71.0771 16.9801 68.4586 17.5135L67.2949 18.2409Z" fill="#0D3E5C"/>
<path d="M14.8765 31.5758C14.8765 14.7496 26.9507 1.07523 43.7769 1.07523C60.6031 1.07523 74.2774 14.7496 74.2774 31.5758C74.2774 48.402 60.6031 61.5429 43.7769 61.5429" stroke="#0D3E5C" stroke-width="1.1257" stroke-miterlimit="10"/>
<path d="M284.339 43.6985H282.981V43.0196H286.521V43.6985H285.163V47.6747H284.339V43.6985Z" fill="#8890A3"/>
<path d="M291.03 45.7835C290.982 45.2016 290.982 44.4258 290.982 43.7954C290.836 44.3773 290.594 44.9592 290.448 45.5896L289.769 47.6262H289.139L288.509 45.638C288.363 45.0562 288.169 44.4258 288.024 43.8439C288.024 44.4258 287.975 45.2016 287.927 45.832L287.83 47.7231H287.005L287.345 43.0196H288.46L289.042 44.9107C289.188 45.4441 289.382 46.026 289.478 46.5109C289.575 46.026 289.769 45.4441 289.963 44.8622L290.594 42.9711H291.709L292 47.6746H291.127L291.03 45.7835Z" fill="#8890A3"/>
</svg>
