<svg width="209" height="60" viewBox="0 0 209 60" fill="none" xmlns="http://www.w3.org/2000/svg">
<path fill-rule="evenodd" clip-rule="evenodd" d="M8.03037 22.7214C7.58833 23.8265 7.36731 25.0053 7.07262 26.184C6.33589 29.7203 5.74651 33.4777 4.9361 37.014C3.31529 37.014 1.62081 37.014 0 37.014C1.84183 25.0789 5.23079 13.4386 6.70425 0.619431C8.32506 0.619431 9.94587 0.619431 11.493 0.619431C11.272 1.7982 10.9773 2.9033 10.83 4.08207C10.83 4.15575 10.6826 4.22942 10.6826 4.37676C12.8928 1.50351 16.2818 -0.485664 21.6599 0.103721C26.9644 0.619433 29.8376 4.8188 30.0587 9.75491C30.5744 19.1851 25.5646 27.7312 15.2503 26.9944C11.8614 26.7734 9.28282 25.521 8.03037 22.7214ZM14.9557 4.81881C10.6089 7.029 6.40956 17.1959 11.3457 21.5426C14.5873 24.4159 19.6707 22.8687 21.8073 20.2165C24.2385 17.1959 26.4487 8.50246 22.765 5.40819C21.5126 4.37676 19.5234 4.0084 17.6816 4.22942C16.3554 4.30309 15.6924 4.45044 14.9557 4.81881Z" fill="#030000"/>
<path fill-rule="evenodd" clip-rule="evenodd" d="M52.8236 26.4787C51.2765 26.4787 49.7293 26.4787 48.1085 26.4787C48.3295 25.0052 48.6242 23.6055 48.9189 22.2057C47.5191 24.2685 45.0879 26.6261 41.5516 26.9944C36.4681 27.5101 31.8267 24.9316 31.3847 20.7322C31.2373 19.3324 31.311 17.0485 32.4898 15.2804C35.4367 10.639 43.0987 10.3443 50.6871 10.5653C52.9709 2.16657 40.7412 3.419 36.5418 6.14491C36.7628 4.5241 37.1312 2.97696 37.3522 1.35615C44.9406 -1.00139 55.1811 -0.411998 55.7705 7.76572C55.9915 11.0073 55.0338 14.1753 54.4444 17.2696C53.855 20.2902 53.2656 23.2371 52.8236 26.4787ZM36.7628 19.7745C36.9102 21.911 39.2677 23.0897 41.1832 23.0897C46.414 23.1634 48.9189 18.5957 49.7293 14.1016C43.8355 13.8069 36.3945 14.5437 36.7628 19.7745Z" fill="#030000"/>
<path fill-rule="evenodd" clip-rule="evenodd" d="M64.1693 0.693085C65.2744 7.54469 66.6006 14.1753 67.632 21.1742C71.5367 14.47 75.1467 7.47102 78.9777 0.693085C80.7458 0.693085 82.514 0.693085 84.3558 0.693085C79.6407 9.23917 74.1152 18.5957 68.8108 27.5838C67.19 30.3834 65.5691 34.1407 63.2116 35.9825C61.1488 37.6034 57.1704 37.9717 53.8551 37.3086C53.9288 35.8352 54.4445 34.7301 54.5182 33.3303C55.1812 33.2566 55.9916 33.6987 56.802 33.6987C60.412 33.6987 62.4012 30.3834 63.7273 27.8048C62.1802 18.8904 60.4857 10.0496 58.9385 1.06145C58.7912 0.914104 58.8649 0.840431 58.9385 0.693085C60.7067 0.693085 62.4749 0.693085 64.1693 0.693085Z" fill="#030000"/>
<path fill-rule="evenodd" clip-rule="evenodd" d="M86.4922 41.5817C85.3871 47.8439 83.9873 53.7378 82.8822 60C79.4196 60 75.957 60 72.4207 60C74.0415 52.338 75.4412 44.7497 76.9884 37.1613C78.5355 29.6467 80.3774 22.132 81.2614 14.1753C84.061 13.9543 87.8183 13.9543 90.6179 14.1753C90.5442 15.9434 90.1022 17.4169 89.9549 19.1114C92.6808 16.3855 95.6277 12.7755 101.89 13.3649C107.857 13.9543 111.173 18.9641 111.615 25.2999C112.425 36.2036 107.121 46.8862 97.5432 47.6229C91.5757 48.065 88.7761 45.339 86.4922 41.5817ZM90.6916 25.2999C88.2604 28.7626 87.45 35.3932 90.5443 37.9717C92.4598 39.5925 95.9961 38.7821 97.6169 37.456C99.6797 35.7615 101.153 32.5199 101.08 28.4679C101.006 24.7842 99.385 21.69 95.4803 22.2057C93.1965 22.5004 91.7967 23.6791 90.6916 25.2999Z" fill="#009651"/>
<path fill-rule="evenodd" clip-rule="evenodd" d="M140.274 46.9599C137.548 46.8862 134.453 47.1072 131.949 46.8125C132.243 45.3391 132.243 43.4972 132.464 42.0238C131.654 42.8342 131.065 44.0129 130.033 44.9707C126.644 48.065 119.056 48.728 115.298 45.6337C111.246 42.2448 111.909 34.1407 115.298 30.6781C119.203 26.6261 126.57 25.5946 134.159 26.405C134.896 23.3108 132.833 21.3953 130.254 21.0269C126.497 20.5112 121.487 22.132 119.277 23.4581C119.719 20.8059 119.866 17.9326 120.382 15.2804C123.034 14.3226 125.539 13.5859 128.707 13.4386C137.474 12.8492 143.515 15.7961 144.105 23.3108C144.399 27.2891 143.221 31.4148 142.337 35.3195C141.526 39.1505 140.937 43.0552 140.274 46.9599ZM129.738 32.2252C126.57 32.2989 123.108 33.3303 122.371 35.6879C121.782 37.7507 123.255 39.6662 124.802 39.9609C129.665 40.9923 132.98 36.2036 133.348 32.3726C132.243 32.1515 130.622 32.2252 129.738 32.2252Z" fill="#009651"/>
<path fill-rule="evenodd" clip-rule="evenodd" d="M172.395 15.2804C171.879 17.9327 170.922 20.1428 170.406 22.7951C167.827 21.911 164.733 20.5849 160.681 21.0269C159.06 21.248 157.44 22.0583 157.44 23.6792C157.513 25.6683 160.534 26.4051 162.376 27.1418C164.954 28.2469 168.048 29.7204 169.301 31.9306C171.437 35.7616 169.301 41.3607 167.017 43.7183C165.102 45.7074 161.492 47.3282 157.808 47.6229C153.019 47.9913 148.009 47.1072 143.884 46.0021C144.473 43.2762 145.136 40.7713 145.873 38.2665C148.599 39.3715 151.693 40.403 155.892 40.0346C157.882 39.8136 160.092 39.1505 159.797 36.793C159.576 34.8775 156.703 34.2144 154.566 33.3303C150.588 31.7095 147.641 29.6467 147.641 24.2685C147.641 13.2176 162.965 11.3757 172.395 15.2804Z" fill="#009651"/>
<path fill-rule="evenodd" clip-rule="evenodd" d="M198.476 15.2804C197.886 17.859 197.076 20.2902 196.339 22.7951C193.908 21.8373 190.74 20.5849 186.688 21.0269C185.067 21.1743 183.446 21.9847 183.446 23.6791C183.52 25.742 187.204 26.8471 188.898 27.5838C192.361 29.0573 195.676 30.6781 196.118 34.6565C196.56 38.5611 194.939 41.7291 192.655 43.8656C190.519 45.9285 187.351 47.3282 183.815 47.6229C178.952 47.9913 174.237 47.1072 169.89 46.0021C170.332 43.2025 171.216 40.9187 171.732 38.2664C173.721 38.8558 175.637 39.8136 177.994 40.0346C181.31 40.3293 185.804 40.1083 185.73 37.235C185.656 34.1407 179.247 33.4777 176.742 31.4885C174.016 29.352 172.322 24.1212 174.458 19.8481C177.994 13.2176 190.151 11.7441 198.476 15.2804Z" fill="#009651"/>
<path d="M202.38 18.6694H201.054L201.128 18.1537H204.369L204.296 18.6694H202.97L202.233 22.7214H201.644L202.38 18.6694Z" fill="#009651"/>
<path d="M207.832 22.7214L208.127 20.2902C208.201 19.8481 208.274 19.1851 208.348 18.743C208.127 19.1851 207.906 19.7745 207.611 20.2165L206.285 22.7214H205.843L205.475 20.2902C205.401 19.7745 205.327 19.2588 205.327 18.743C205.254 19.1851 205.106 19.8481 204.959 20.2902L204.37 22.7214H203.854L205.033 18.1537H205.769L206.138 20.7322C206.211 21.1006 206.211 21.5426 206.211 21.911C206.359 21.5426 206.58 21.1743 206.727 20.8059L208.127 18.1537H208.864L208.274 22.7214H207.832Z" fill="#009651"/>
</svg>
