<svg width="127" height="76" viewBox="0 0 127 76" fill="none" xmlns="http://www.w3.org/2000/svg">
<path d="M126.667 38C126.667 58.8513 109.713 76 88.6666 76C67.8153 76 50.6666 58.8513 50.6666 38C50.6666 17.1487 67.6205 0 88.4718 0C109.713 0 126.667 17.1487 126.667 38Z" fill="#F9B50B"/>
<path d="M75.8051 38.1949C75.8051 35.4667 75.4154 32.7385 75.0256 30.2051H51.641C51.8359 28.841 52.2256 27.6718 52.6154 26.1128H73.4667C73.0769 24.7487 72.4923 23.3846 71.9077 22.0205H54.1744C54.759 20.6564 55.5385 19.4872 56.3179 17.9282H69.7641C68.9846 16.5641 68.0103 15.2 66.841 13.8359H59.4359C60.6051 12.4718 61.7744 11.3026 63.3333 9.93846C56.7077 3.70256 47.7436 0 37.8051 0C17.1487 0.584615 0 17.1487 0 38C0 58.8513 16.9538 76 38 76C47.9385 76 56.7077 72.1026 63.5282 66.0615C64.8923 64.8923 66.0615 63.5282 67.4256 61.9692H59.6308C58.6564 60.8 57.6821 59.4359 56.9026 58.0718H70.1538C70.9333 56.9026 71.7128 55.5385 72.2974 53.9795H54.5641C53.9795 52.8103 53.3949 51.4462 53.0051 49.8872H73.8564C75.0256 46.3795 75.8051 42.4821 75.8051 38.1949Z" fill="#C8191C"/>
<path d="M51.4463 47.7436L52.0309 44.2359C51.836 44.2359 51.4463 44.4308 51.0565 44.4308C49.6924 44.4308 49.4975 43.6513 49.6924 43.2615L50.8616 36.2462H53.0052L53.5898 32.3487H51.6411L52.0309 30.0103H47.9386C47.9386 30.0103 45.6001 43.2615 45.6001 44.8205C45.6001 47.159 46.9642 48.3282 48.9129 48.3282C50.0822 48.3282 51.0565 47.9385 51.4463 47.7436Z" fill="white"/>
<path d="M52.8102 41.3128C52.8102 46.9641 56.7076 48.3282 59.8256 48.3282C62.7486 48.3282 64.1127 47.7436 64.1127 47.7436L64.8922 43.8462C64.8922 43.8462 62.7486 44.8205 60.6051 44.8205C56.123 44.8205 56.9025 41.5077 56.9025 41.5077H65.0871C65.0871 41.5077 65.6717 38.9744 65.6717 37.8051C65.6717 35.2718 64.3076 31.959 59.8256 31.959C55.9281 31.7641 52.8102 36.2462 52.8102 41.3128ZM59.8256 35.4667C61.9692 35.4667 61.5794 38 61.5794 38.1949H57.0974C57.2922 38 57.682 35.4667 59.8256 35.4667Z" fill="white"/>
<path d="M85.3538 47.7436L86.1333 43.2615C86.1333 43.2615 84.1846 44.2359 82.6256 44.2359C79.8974 44.2359 78.5333 42.0923 78.5333 39.559C78.5333 34.6872 80.8717 32.1538 83.7948 32.1538C85.7435 32.1538 87.4974 33.3231 87.4974 33.3231L88.082 29.0359C88.082 29.0359 85.7435 28.0615 83.4051 28.0615C78.7281 28.0615 74.2461 32.1538 74.2461 39.7538C74.2461 44.8205 76.5846 48.1333 81.4564 48.1333C83.2102 48.3282 85.3538 47.7436 85.3538 47.7436Z" fill="white"/>
<path d="M29.4256 31.7641C26.6974 31.7641 24.5538 32.5436 24.5538 32.5436L23.9692 36.0512C23.9692 36.0512 25.723 35.2718 28.4512 35.2718C29.8153 35.2718 30.9845 35.4666 30.9845 36.6359C30.9845 37.4154 30.7897 37.6102 30.7897 37.6102H29.0358C25.5281 37.6102 21.8256 38.9743 21.8256 43.6512C21.8256 47.3538 24.164 48.1333 25.723 48.1333C28.4512 48.1333 29.8153 46.3795 30.0102 46.3795L29.8153 47.9384H33.1281L34.6871 36.8307C34.6871 31.9589 30.7897 31.7641 29.4256 31.7641ZM30.205 40.7282C30.205 41.3128 29.8153 44.6256 27.4768 44.6256C26.3076 44.6256 25.9179 43.6513 25.9179 43.0666C25.9179 42.0923 26.5025 40.7282 29.6204 40.7282C30.0102 40.7282 30.205 40.7282 30.205 40.7282Z" fill="white"/>
<path d="M38.5847 48.1333C39.559 48.1333 44.6257 48.3282 44.6257 42.8718C44.6257 37.8051 39.7539 38.7795 39.7539 36.8308C39.7539 35.8564 40.5334 35.4667 41.8975 35.4667C42.4821 35.4667 44.6257 35.6615 44.6257 35.6615L45.2103 31.959C45.2103 31.959 43.8462 31.5692 41.3129 31.5692C38.3898 31.5692 35.2719 32.7385 35.2719 36.8308C35.2719 41.5077 40.3385 41.118 40.3385 42.8718C40.3385 44.041 38.9744 44.2359 38.0001 44.2359C36.2462 44.2359 34.2975 43.6513 34.2975 43.6513L33.7129 47.3539C34.1026 47.7436 35.2719 48.1333 38.5847 48.1333Z" fill="white"/>
<path d="M118.872 28.6462L118.092 34.1026C118.092 34.1026 116.533 32.1539 114.195 32.1539C110.492 32.1539 107.374 36.6359 107.374 41.8975C107.374 45.2103 108.933 48.5231 112.441 48.5231C114.779 48.5231 116.338 46.9641 116.338 46.9641L116.143 48.3282H120.236L123.159 29.0359L118.872 28.6462ZM116.923 39.1693C116.923 41.3128 115.949 44.2359 113.61 44.2359C112.246 44.2359 111.467 43.0667 111.467 40.9231C111.467 37.6103 112.831 35.6616 114.779 35.6616C116.144 35.8564 116.923 36.8308 116.923 39.1693Z" fill="white"/>
<path d="M7.40525 47.9385L9.74371 33.518L10.1335 47.9385H12.8617L18.1232 33.518L15.9796 47.9385H20.2668L23.5796 28.6462H16.954L12.8617 40.5334L12.6668 28.6462H6.82063L3.50781 47.9385H7.40525Z" fill="white"/>
<path d="M69.7642 47.9385C70.9334 41.3128 71.1283 35.8564 74.0513 36.8308C74.4411 34.2974 75.0257 33.1282 75.4154 32.1538H74.6359C72.8821 32.1538 71.3231 34.4923 71.3231 34.4923L71.7129 32.3487H67.8154L65.2821 47.9385H69.7642V47.9385Z" fill="white"/>
<path d="M94.7075 31.7641C91.9793 31.7641 89.8357 32.5436 89.8357 32.5436L89.2511 36.0512C89.2511 36.0512 91.005 35.2718 93.7332 35.2718C95.0973 35.2718 96.2665 35.4666 96.2665 36.6359C96.2665 37.4154 96.0716 37.6102 96.0716 37.6102H94.3178C90.8101 37.6102 87.1075 38.9743 87.1075 43.6512C87.1075 47.3538 89.446 48.1333 91.005 48.1333C93.7332 48.1333 95.0973 46.3795 95.2922 46.3795L95.0973 47.9384H98.7999L100.359 36.8307C100.359 31.9589 96.0716 31.7641 94.7075 31.7641ZM95.6819 40.7282C95.6819 41.3128 95.2922 44.6256 92.9537 44.6256C91.7845 44.6256 91.3947 43.6513 91.3947 43.0666C91.3947 42.0923 91.9793 40.7282 95.0973 40.7282C95.487 40.7282 95.487 40.7282 95.6819 40.7282Z" fill="white"/>
<path d="M103.477 47.9385C104.646 41.3128 104.841 35.8564 107.764 36.8308C108.154 34.2974 108.739 33.1282 109.128 32.1538H108.349C106.595 32.1538 105.036 34.4923 105.036 34.4923L105.426 32.3487H101.528L98.995 47.9385H103.477V47.9385Z" fill="white"/>
</svg>
