<svg width="164" height="51" viewBox="0 0 164 51" fill="none" xmlns="http://www.w3.org/2000/svg">
<path d="M152.971 0.719269H142.661C139.544 0.719269 137.146 1.67833 135.708 4.79529L116.047 49.6315H129.953C129.953 49.6315 132.351 43.6374 132.831 42.1988C134.269 42.1988 147.936 42.1988 149.854 42.1988C150.333 43.8772 151.532 49.3918 151.532 49.3918H164L152.971 0.719269ZM136.667 32.1286C137.866 29.2514 141.942 18.462 141.942 18.462C141.942 18.7017 143.14 15.5848 143.62 13.9064L144.579 18.2222C144.579 18.2222 147.216 29.9707 147.696 32.3684H136.667V32.1286Z" fill="#3362AB"/>
<path d="M117.006 33.5673C117.006 43.6374 107.895 50.3509 93.7485 50.3509C87.7544 50.3509 82 49.152 78.8831 47.7134L80.8012 36.6842L82.4795 37.4035C86.7953 39.3216 89.6725 40.0409 94.9474 40.0409C98.7836 40.0409 102.86 38.6023 102.86 35.2456C102.86 33.0877 101.181 31.6491 95.9064 29.2515C90.8714 26.8538 84.1579 23.0175 84.1579 16.0643C84.1579 6.47368 93.5088 0 106.696 0C111.731 0 116.047 0.959064 118.684 2.15789L116.766 12.7076L115.807 11.7485C113.409 10.7895 110.292 9.83041 105.737 9.83041C100.702 10.0702 98.3041 12.2281 98.3041 14.1462C98.3041 16.3041 101.181 17.9825 105.737 20.1403C113.409 23.7368 117.006 27.8129 117.006 33.5673Z" fill="#3362AB"/>
<path d="M0 1.19884L0.239766 0.239777H20.8596C23.7368 0.239777 25.8947 1.19884 26.614 4.3158L31.1696 25.8947C26.614 14.386 16.0643 5.0351 0 1.19884Z" fill="#F9B50B"/>
<path d="M60.1813 0.719319L39.3216 49.3918H25.1754L13.1871 8.6316C21.8187 14.1462 29.0117 22.7778 31.6491 28.772L33.0877 33.807L46.0351 0.479553H60.1813V0.719319Z" fill="#3362AB"/>
<path d="M65.696 0.479553H78.8831L70.4913 49.3918H57.3041L65.696 0.479553Z" fill="#3362AB"/>
</svg>
