<svg width="99" height="76" viewBox="0 0 99 76" fill="none" xmlns="http://www.w3.org/2000/svg">
<path d="M17.9433 75.8335V70.7897C17.9433 68.8603 16.7544 67.5969 14.7133 67.5969C13.6928 67.5969 12.5831 67.9299 11.8202 69.0268C11.2257 68.1062 10.3737 67.5969 9.09553 67.5969C8.24345 67.5969 7.39137 67.8515 6.71763 68.7722V67.7634H4.9342V75.8335H6.71763V71.3773C6.71763 69.9474 7.48054 69.2716 8.66949 69.2716C9.85844 69.2716 10.4529 70.0258 10.4529 71.3773V75.8335H12.2363V71.3773C12.2363 69.9474 13.0884 69.2716 14.1882 69.2716C15.3772 69.2716 15.9716 70.0258 15.9716 71.3773V75.8335H17.9433ZM44.3975 67.7634H41.5044V65.3247H39.7209V67.7634H38.1059V69.3598H39.7209V73.0619C39.7209 74.9129 40.4839 76 42.5249 76C43.2878 76 44.1399 75.7454 44.7344 75.4124L44.2191 73.8943C43.7039 74.2273 43.1095 74.3155 42.6834 74.3155C41.8313 74.3155 41.4945 73.8062 41.4945 72.9737V69.3598H44.3876V67.7634H44.3975ZM59.5368 67.5871C58.5163 67.5871 57.8326 68.0964 57.4066 68.7624V67.7536H55.6232V75.8237H57.4066V71.2794C57.4066 69.9376 58.0011 69.1737 59.1108 69.1737C59.4476 69.1737 59.8737 69.2619 60.2204 69.3402L60.7357 67.6557C60.379 67.5871 59.8737 67.5871 59.5368 67.5871ZM36.6594 68.4294C35.8073 67.8418 34.6184 67.5871 33.3402 67.5871C31.2992 67.5871 29.9418 68.5959 29.9418 70.1923C29.9418 71.534 30.9623 72.2979 32.7458 72.5428L33.5978 72.6309C34.5292 72.7974 35.0444 73.0521 35.0444 73.4732C35.0444 74.0608 34.3608 74.482 33.1718 74.482C31.9828 74.482 31.0416 74.0608 30.4471 73.6397L29.595 74.9814C30.5264 75.6572 31.8045 75.9902 33.0826 75.9902C35.4605 75.9902 36.8278 74.8933 36.8278 73.3851C36.8278 71.9552 35.7181 71.201 34.0239 70.9464L33.1718 70.8582C32.4089 70.7701 31.8144 70.6036 31.8144 70.1041C31.8144 69.5165 32.4089 69.1835 33.3501 69.1835C34.3707 69.1835 35.3912 69.6046 35.9064 69.8593L36.6594 68.4294ZM84.1085 67.5871C83.0879 67.5871 82.4043 68.0964 81.9783 68.7624V67.7536H80.1948V75.8237H81.9783V71.2794C81.9783 69.9376 82.5727 69.1737 83.6824 69.1737C84.0193 69.1737 84.4453 69.2619 84.7921 69.3402L85.3073 67.6753C84.9605 67.5871 84.4552 67.5871 84.1085 67.5871ZM61.3202 71.7985C61.3202 74.2371 63.0244 76 65.6599 76C66.8488 76 67.7009 75.7454 68.553 75.0794L67.7009 73.6495C67.0173 74.1588 66.3435 74.4036 65.5707 74.4036C64.1242 74.4036 63.1037 73.3948 63.1037 71.7985C63.1037 70.2804 64.1242 69.2716 65.5707 69.1933C66.3336 69.1933 67.0173 69.4479 67.7009 69.9474L68.553 68.5175C67.7009 67.8418 66.8488 67.5969 65.6599 67.5969C63.0244 67.5871 61.3202 69.3598 61.3202 71.7985ZM77.8169 71.7985V67.7634H76.0335V68.7722C75.439 68.018 74.5869 67.5969 73.4772 67.5969C71.1786 67.5969 69.3952 69.3598 69.3952 71.7985C69.3952 74.2371 71.1786 76 73.4772 76C74.6662 76 75.5183 75.5789 76.0335 74.8247V75.8335H77.8169V71.7985ZM71.2678 71.7985C71.2678 70.3686 72.1991 69.1933 73.7349 69.1933C75.1814 69.1933 76.2019 70.2902 76.2019 71.7985C76.2019 73.2283 75.1814 74.4036 73.7349 74.4036C72.209 74.3155 71.2678 73.2186 71.2678 71.7985ZM49.9261 67.5871C47.5482 67.5871 45.844 69.2716 45.844 71.7887C45.844 74.3155 47.5482 75.9902 50.0153 75.9902C51.2042 75.9902 52.3932 75.6572 53.3344 74.8933L52.4824 73.6299C51.7987 74.1392 50.9466 74.4722 50.1045 74.4722C48.9948 74.4722 47.895 73.9629 47.6374 72.5428H53.6713C53.6713 72.2881 53.6713 72.1216 53.6713 71.867C53.7506 69.2716 52.2148 67.5871 49.9261 67.5871ZM49.9261 69.1052C51.0358 69.1052 51.7987 69.7809 51.9671 71.0345H47.7166C47.8851 69.9474 48.648 69.1052 49.9261 69.1052ZM94.2344 71.7985V64.5706H92.4509V68.7722C91.8565 68.018 91.0044 67.5969 89.8947 67.5969C87.596 67.5969 85.8126 69.3598 85.8126 71.7985C85.8126 74.2371 87.596 76 89.8947 76C91.0836 76 91.9357 75.5789 92.4509 74.8247V75.8335H94.2344V71.7985ZM87.6852 71.7985C87.6852 70.3686 88.6166 69.1933 90.1523 69.1933C91.5989 69.1933 92.6194 70.2902 92.6194 71.7985C92.6194 73.2283 91.5989 74.4036 90.1523 74.4036C88.6166 74.3155 87.6852 73.2186 87.6852 71.7985ZM27.98 71.7985V67.7634H26.1966V68.7722C25.6021 68.018 24.7501 67.5969 23.6404 67.5969C21.3417 67.5969 19.5583 69.3598 19.5583 71.7985C19.5583 74.2371 21.3417 76 23.6404 76C24.8293 76 25.6814 75.5789 26.1966 74.8247V75.8335H27.98V71.7985ZM21.3516 71.7985C21.3516 70.3686 22.283 69.1933 23.8187 69.1933C25.2653 69.1933 26.2858 70.2902 26.2858 71.7985C26.2858 73.2283 25.2653 74.4036 23.8187 74.4036C22.283 74.3155 21.3516 73.2186 21.3516 71.7985Z" fill="black"/>
<path d="M62.8559 6.47372H36.0648V54.0521H62.8559V6.47372Z" fill="#FF5A00"/>
<path d="M37.8483 30.2629C37.8483 20.5964 42.4456 12.017 49.5 6.47371C44.3082 2.43866 37.7591 0 30.6155 0C13.6928 0 0 13.5351 0 30.2629C0 46.9907 13.6928 60.5258 30.6155 60.5258C37.7591 60.5258 44.3082 58.0871 49.5 54.0521C42.4356 48.5871 37.8483 39.9294 37.8483 30.2629Z" fill="#EB001B"/>
<path d="M99 30.2629C99 46.9907 85.3072 60.5258 68.3845 60.5258C61.2409 60.5258 54.6918 58.0871 49.5 54.0521C56.6436 48.499 61.1517 39.9294 61.1517 30.2629C61.1517 20.5964 56.5544 12.017 49.5 6.47371C54.6818 2.43866 61.231 0 68.3746 0C85.3072 0 99 13.6232 99 30.2629Z" fill="#F79E1B"/>
</svg>
